#!OML:ASF F:\VICON\USERDATA\INSTALL\rory3\rory3.ASF
:FULLY-SPECIFIED
:DEGREES
101
root 1.5081946003180684 17.86507417279179 53.489374440353885 -3.2857769244274326 -0.5974051413894396 -1.3388424165709645
lfemur 5.386962781061447 -4.343527248700251 -22.888603025680034
ltibia 27.588422525989817
lfoot -4.470389881546584 -4.457416611228635
ltoes -6.959041711688501
rfemur -24.585182429626634 2.150539660232441 23.99031048570495
rtibia 45.03906164607439
rfoot -9.943202345480934 -3.517043962083397
rtoes 2.2622848774487956
lowerback 1.0 -1.6950193354883283 -0.906458599590009
upperback -0.04720087725739491 -1.8924480421711387 1.8762511621776814
thorax -5.220222735226124 -0.9390585495815507 3.045727198695417
lowerneck -16.310274247462825 -2.848333214024999 -1.5507653096284855
upperneck 23.289712313681374 -3.510287967391091 0.2773719211862328
head 10.311364790642116 -1.7599133430069152 -0.0658121025725943
lclavicle -1.856018909458749e-15 -1.4713484029766698e-16
lhumerus -25.569633281807832 -1.4024307561958391 81.3733456131074
lradius 28.048762529952835
lwrist 3.8046239678891474
lhand -27.032338820567738 24.265081943840762
lfingers nan
lthumb -0.2779895343405111 54.50347657593249
rclavicle -1.9216759315043534e-15 -1.8933087582473948e-16
rhumerus -30.04681515668994 -22.975437047562483 -76.65630844095115
rradius 30.50508953032371
rwrist 1.4339553274069718
rhand -18.019001452523597 1.0
rfingers nan
rthumb 8.37704866805579 -7.953035180106461
102
root 1.5202635778210627 17.862292777023686 53.960009044976715 -3.319394901611251 -0.7774478456598028 -0.9720297421598589
lfemur 5.711474405083184 -4.143036938673978 -22.89607110509459
ltibia 29.579249725459704
lfoot -3.6453711804437257 -3.488397466322078
ltoes -6.414062307483505
rfemur -23.972505058898214 2.1514948156215086 23.743115060718686
rtibia 41.45184826901592
rfoot -10.469848756543616 -3.8178260570320632
rtoes 1.5351456399742367
lowerback 1.0 -1.7432355663951484 -1.180970258195746
upperback -0.04437839918885328 -1.994645767048773 1.924512397129226
thorax -5.166521546193606 -0.9863630893244466 3.2062712065142347
lowerneck -16.299302519264046 -2.8034437393828697 -1.5728776276304661
upperneck 23.510937068574762 -3.41715509905392 0.1498070429408916
head 10.364648368929702 -1.731901175783983 -0.09389688172605723
lclavicle -1.858276203315257e-15 -1.486444705854231e-16
lhumerus -25.65365048971329 -1.4831834237645163 81.41142763695392
lradius 27.441524156263938
lwrist 4.089006223545258
lhand -27.044246996005008 24.27191606053872
lfingers nan
lthumb -0.2977121071964941 54.51388346947561
rclavicle -1.923911530516544e-15 -1.902141454626211e-16
rhumerus -30.337557631717182 -23.479540876580664 -76.70378108378736
rradius 30.46544676970519
rwrist 1.219879458402798
rhand -18.026483713503648 1.0
rfingers nan
rthumb 8.345909615562231 -7.997871969834945
103
root 1.547214327751193 17.8583069599432 53.81934240660975 -3.3854025252368034 -0.8543822314952368 -0.8164593341527189
lfemur 5.5943287738914815 -4.045310762407731 -22.720149808363185
ltibia 32.22342451134895
lfoot -4.537234039090501 -3.833303647836713
ltoes -5.525826248872808
rfemur -23.24746545520144 1.8835592347825907 23.721899429355112
rtibia 38.22786184867395
rfoot -10.963631852419228 -4.486618270097506
rtoes 0.9105349753198015
lowerback 1.0 -1.7373689259163556 -1.1984198736621177
upperback -0.026139667621754015 -1.9648311820798632 1.986812913305183
thorax -5.09066755272896 -0.9795279862962891 3.243902206255844
lowerneck -16.27117722503114 -2.772797058914747 -1.588450507206872
upperneck 23.642297725784793 -3.3517915957818514 0.038303947593685564
head 10.386675338718415 -1.7138838983894742 -0.12234069838092332
lclavicle -1.860838729191e-15 -1.502961188769631e-16
lhumerus -25.89802087619721 -1.3950530930769585 81.48159536640036
lradius 26.625715406368695
lwrist 4.3169883942169855
lhand -27.03829155599869 24.206561442637884
lfingers nan
lthumb -0.31429221248268047 54.40850366405478
rclavicle -1.9272769352196644e-15 -1.915382380929024e-16
rhumerus -30.639420368222492 -23.91495816374614 -76.68984265425865
rradius 30.466967417879754
rwrist 1.1880403264559627
rhand -18.031847543546533 1.0
rfingers nan
rthumb 8.371885471729227 -7.907737552384316
104
root 1.5722541835372839 17.85431949365866 53.345207098519694 -3.378752097760232 -0.8693049443884611 -1.1635681259973087
lfemur 4.740558459457127 -3.982272763708796 -22.078224897611488
ltibia 35.67313924658076
lfoot -4.690294598324131 -3.0628183938057463
ltoes -5.1326048881526
rfemur -22.768476070340114 1.7722292779675128 24.16023116785858
rtibia 35.875135221308305
rfoot -11.395737114658143 -5.473153096462816
rtoes 0.526619845093502
lowerback 1.0 -1.7043417200319773 -0.8130662871404164
upperback -0.03856620523442983 -1.8360235396944111 2.0846021407601114
thorax -5.09797426572865 -0.9245173346241264 3.1539158576928776
lowerneck -16.250802648980105 -2.7559258970615708 -1.585750861453005
upperneck 23.677318507385802 -3.314285568890003 -0.05568081505233716
head 10.375802814095726 -1.7057636216531447 -0.1506165441435767
lclavicle -1.860769391539443e-15 -1.5029019957207711e-16
lhumerus -26.26116667698166 -1.1952817055445175 81.57519781139356
lradius 25.6457890270679
lwrist 4.461022489700409
lhand -27.00950315079104 24.119217771085655
lfingers nan
lthumb -0.25228911078520455 54.3447542686703
rclavicle -1.929773580691006e-15 -1.9343549028553411e-16
rhumerus -30.980970231680427 -24.291610423565196 -76.61568349858003
rradius 30.515870359992107
rwrist 1.5310832291673213
rhand -18.032148842070217 1.0
rfingers nan
rthumb 8.353036524473112 -7.889241307407644
105
root 1.5983960236260422 17.856566866115532 53.38320348833775 -3.3283996857907363 -0.8921431761737122 -1.594770116920103
lfemur 3.2931708492194787 -3.866888314318736 -21.309154790374986
ltibia 39.71371226576821
lfoot -5.159392840657542 -2.237141322105757
ltoes -5.692950742570815
rfemur -22.175572760241415 1.8286470840019309 24.696955873067395
rtibia 34.40858270771065
rfoot -11.8576650962147 -6.596512196781252
rtoes 0.5568476466011472
lowerback 1.0 -1.6608303434057656 -0.381520914407794
upperback -0.04945850247778444 -1.6868125214196963 2.1500101342603646
thorax -5.148556535551834 -0.8494790287858118 3.0645421179886334
lowerneck -16.25369224201672 -2.750077790910357 -1.5480539765888706
upperneck 23.620416549748853 -3.3009194127962793 -0.13632271013259545
head 10.331973929307296 -1.7061246002534896 -0.17979121638991963
lclavicle -1.859096806908343e-15 -1.4948790117455953e-16
lhumerus -26.694007335796908 -0.9225537464671048 81.68974689679513
lradius 24.58902138739798
lwrist 4.771743732139806
lhand -27.03576685333003 24.0186199582138
lfingers nan
lthumb -0.27498092254421 54.20425431740197
rclavicle -1.930071282031925e-15 -1.948066925007834e-16
rhumerus -31.270921512823314 -24.549790208780486 -76.41359294107606
rradius 30.599161974400317
rwrist 2.2907915747475998
rhand -18.030263511549236 1.0
rfingers nan
rthumb 8.38703344820718 -7.781067212324604
106
root 1.621717343830886 17.86282976950837 53.515229662458246 -3.2704099454051723 -1.007669798119588 -2.052905074599025
lfemur 1.651605425707876 -3.5708220684095524 -20.372340706749625
ltibia 43.77352392606857
lfoot -5.500689110940103 -2.0185715928207295
ltoes -5.060760995731471
rfemur -21.281567566197864 2.006602908047624 25.2756117761391
rtibia 33.61312587443549
rfoot -12.456397196732727 -7.627952333167168
rtoes 0.9718755893136555
lowerback 1.0 -1.5712467869684723 0.04883255991175206
upperback -0.04119783417118139 -1.5234401218906142 2.1680139876924205
thorax -5.175602202583685 -0.7622137377659779 2.967802333941183
lowerneck -16.279244790650875 -2.757184787184007 -1.486416059916793
upperneck 23.48117969510977 -3.313696449759382 -0.19671363672581482
head 10.26160876324606 -1.7150959634261527 -0.20774928159912334
lclavicle -1.8580744375005733e-15 -1.4931413556985414e-16
lhumerus -27.18368436624779 -0.6081037576911963 81.82801298535654
lradius 23.547109141217916
lwrist 5.217692413157463
lhand -27.069888309927762 23.951828835405646
lfingers nan
lthumb -0.2852157346204285 54.15958178947971
rclavicle -1.929570441008558e-15 -1.9560769978426827e-16
rhumerus -31.544073627266755 -24.770994737683317 -76.10045579324436
rradius 30.70169541327042
rwrist 3.0154204528021524
rhand -18.031289780545457 1.0
rfingers nan
rthumb 8.371973355834815 -7.798916578207905
107
root 1.6293862816486626 17.865761691005417 52.920595406099714 -3.2698089928287355 -1.2104056223241213 -2.650412321855116
lfemur -0.20234311130885807 -3.1063572372751187 -19.147231139107454
ltibia 47.50279654172869
lfoot -5.896516610212469 -0.8364186888028806
ltoes -6.38238672853903
rfemur -20.209751545001883 2.335534874161549 26.004980178529237
rtibia 33.40455408000524
rfoot -13.293314445873644 -8.51554548894016
rtoes 1.5685709253519922
lowerback 1.0 -1.4205124978234855 0.5413123290630627
upperback -0.011078293454357957 -1.2313952668772308 2.2124786464453754
thorax -5.186382880043993 -0.6112039031010676 2.798174615516369
lowerneck -16.30536572234482 -2.783563877059215 -1.4114897249645455
upperneck 23.25961333692173 -3.3632263016590445 -0.2335388128962222
head 10.1679932745594 -1.7361329189348669 -0.23611138954797145
lclavicle -1.8557851329725673e-15 -1.481724701487732e-16
lhumerus -27.747245555117615 -0.2705014164617623 81.99206286144207
lradius 22.604636427563182
lwrist 5.560051940530074
lhand -27.09543888051042 23.859158646043674
lfingers nan
lthumb -0.3436462248351242 54.015729559184464
rclavicle -1.928540927389226e-15 -1.9611634290677648e-16
rhumerus -31.788095440252825 -25.029167488756144 -75.72958884118181
rradius 30.803186534539957
rwrist 3.207908277273027
rhand -18.033287587984393 1.0
rfingers nan
rthumb 8.405188445371513 -7.769332438613371
108
root 1.6293469955259472 17.870516538471268 52.744542430422676 -3.1942705176111033 -1.3041962141055796 -3.4974166526061263
lfemur -2.5146167752503823 -2.62864340931604 -17.64856886715284
ltibia 50.878991324767114
lfoot -7.514942257151758 -0.8946172977477396
ltoes -5.891849054341461
rfemur -18.95850624440176 2.776081167918209 26.959319847953648
rtibia 33.539273196008736
rfoot -14.272007778151046 -9.266930992021585
rtoes 1.9849169887931684
lowerback 1.0 -1.2274968903807602 1.2342371468077649
upperback -0.010697347937584478 -0.850036813860845 2.315706070822673
thorax -5.263741733078019 -0.4197333052167642 2.4965594244035856
lowerneck -16.317900916183817 -2.826682603780714 -1.318922516893147
upperneck 22.991978360384355 -3.442503350127119 -0.25530346616611094
head 10.065082751392339 -1.7669524625722604 -0.2669307119615937
lclavicle -1.8520402628639658e-15 -1.4615609117848695e-16
lhumerus -28.39091195643706 0.09503816013274058 82.17110607825546
lradius 21.82578637251601
lwrist 5.7541738065537835
lhand -27.150870486249136 23.727476800036868
lfingers nan
lthumb -0.3896867246059233 53.917110722104944
rclavicle -1.9261213320450564e-15 -1.9631688381104314e-16
rhumerus -31.949376893526974 -25.310089259566993 -75.33950343326873
rradius 30.884073545005176
rwrist 2.8472737720435877
rhand -18.0379907312596 1.0
rfingers nan
rthumb 8.394451901848416 -7.849813133474922
